<svg version="1" xmlns="http://www.w3.org/2000/svg" width="426.667" height="426.667" viewBox="0 0 320.000000 320.000000"><path d="M69.9 1.4c-28 5.9-51 28.3-58 56.6-2 8-1.8 27.9.4 36 7.5 27.3 29.6 48.5 57 54.5 12.2 2.7 28.6 1.8 40-2.2 9.3-3.3 17.6-7.8 23.5-12.9l3.7-3.2-3.7-7.3c-2-4.1-4.2-8.6-4.7-10.2L127 110l-4 3.9c-9.7 9.4-20.8 14.2-34.6 14.9-11.1.5-18.3-.9-27.3-5.4C38.3 112 26.6 86.7 32.8 62.2c2.7-10.5 6.9-18 14.6-25.7 13-12.9 33.5-18.6 50.9-14 7.5 1.9 16.8 6.7 21.6 11 4.1 3.7 5.1 4.2 5.1 2.4 0-.6 1.6-5.2 3.6-10.2l3.7-9.1-2.9-2.4c-4.2-3.4-14.9-8.6-22.9-11.2C97.6.2 79.6-.6 69.9 1.4zM219.9 1.5c-27.7 5.5-51 28.2-58 56.5-2 8-1.8 27.9.4 36 7.5 27.3 29.6 48.5 57 54.5 12.2 2.7 28.6 1.8 40-2.2 4.8-1.7 11.3-4.6 14.4-6.4 7.5-4.4 21.9-18.8 26.2-26.2 13.8-23.5 13.8-53.5-.1-77.2-4.9-8.3-17-20.6-25.1-25.4-16.9-9.9-36.1-13.3-54.8-9.6zm28.5 21c19.1 5 35.4 21.5 39.6 40 1.7 7.2 1.4 20.6-.5 27.3-4.7 16.3-18 30.6-34 36.4-7.3 2.6-21.7 3.5-29.8 1.8-23-4.7-40.7-25.4-42.4-49.5-1.1-15.6 4.6-30.5 16.1-42 13.1-12.9 33.5-18.5 51-14zM66.5 172c-14.8 3.9-26.5 10.9-37 22.2-22.5 24.2-26.2 60.4-9.3 89.3 4.9 8.3 17 20.6 25.1 25.4C81 330 125.4 320.1 147.5 286c8.9-13.5 12-24.5 12-41.5-.1-14-1.7-21.1-7.6-33.1-9.7-19.9-28.9-35-50.6-39.8-9.8-2.2-25.8-2-34.8.4zm32 20.5c17.3 4.5 31.8 18.1 37.6 35.2 3.3 9.5 3.3 24.9.1 34.3-13.5 38.8-62.6 49.6-90.6 20-10.3-11-14.7-22.2-14.8-37.7 0-24.3 16.1-45.2 40.2-51.9 6.4-1.7 20.5-1.7 27.5.1zM219.4 171.5c-8.5 1.9-17.6 5.7-25 10.6-9.3 6-9.1 5.6-5.1 15.1 1.9 4.6 3.7 9.1 4.1 10.1.5 1.6 1.3 1.3 5.8-2.8 13.1-11.4 32.8-16.3 49.2-12 19.1 5 35.4 21.5 39.6 40 1.7 7.2 1.4 20.6-.5 27.3-4.7 16.3-18 30.6-34 36.4-7.3 2.6-21.7 3.5-29.8 1.8-7.7-1.6-18.5-7.1-24.6-12.6l-5.1-4.6-1 2.7c-.5 1.4-1 2.8-1 3.1 0 .2-1.6 3.7-3.5 7.6-3.3 6.6-3.4 7.1-1.8 8.5 16.2 12.7 31.9 17.9 52.1 17.1 20.2-.8 34.4-7.1 49.2-21.8 9.6-9.6 14-16.5 18.2-28.2 7.2-20.3 4.8-44.2-6.4-63.3-4.9-8.3-17-20.6-25.1-25.4-16.9-9.9-37.4-13.5-55.3-9.6z"/></svg>